<svg xmlns="http://www.w3.org/2000/svg" width="30" height="26" fill="none"><path fill="currentColor" d="M17 25.992a1 1 0 0 1-.57-.18l-10-7a1 1 0 0 1-.43-.82v-10a1 1 0 0 1 .43-.82l10-7a1 1 0 0 1 1-.07 1 1 0 0 1 .57.89v24a1 1 0 0 1-1 1Zm-9-8.52 8 5.6V2.912l-8 5.6v8.96Z"/><path fill="currentColor" d="M7 18.992H3a3 3 0 0 1-3-3v-6a3 3 0 0 1 3-3h4a1 1 0 0 1 1 1v10a1 1 0 0 1-1 1Zm-4-10a1 1 0 0 0-1 1v6a1 1 0 0 0 1 1h3v-8H3ZM21.223 8.04 19.81 9.456l8.485 8.485 1.415-1.414-8.486-8.485Z"/><path fill="currentColor" d="m28.294 8.04-8.485 8.486 1.414 1.414 8.486-8.485-1.415-1.414Z"/></svg>